<?xml version="1.0" encoding="UTF-8" standalone="no"?><!-- Generator: Gravit.io --><svg xmlns="http://www.w3.org/2000/svg" xmlns:xlink="http://www.w3.org/1999/xlink" style="isolation:isolate" viewBox="0 0 400 370" width="400pt" height="370pt"><defs><clipPath id="_clipPath_hRomLqmXVofnFLLLTGYR0LVtWz8UzVGx"><rect width="400" height="370"/></clipPath></defs><g clip-path="url(#_clipPath_hRomLqmXVofnFLLLTGYR0LVtWz8UzVGx)"><defs><filter id="mkxh9i4rxn4uiCDAjpdFBeZS7ZdEDCr7" x="-200%" y="-200%" width="400%" height="400%" filterUnits="objectBoundingBox" color-interpolation-filters="sRGB"><feGaussianBlur xmlns="http://www.w3.org/2000/svg" in="SourceGraphic" stdDeviation="6.440413594258542"/><feOffset xmlns="http://www.w3.org/2000/svg" dx="5" dy="5" result="pf_100_offsetBlur"/><feFlood xmlns="http://www.w3.org/2000/svg" flood-color="#000000" flood-opacity="0.3"/><feComposite xmlns="http://www.w3.org/2000/svg" in2="pf_100_offsetBlur" operator="in" result="pf_100_dropShadow"/><feBlend xmlns="http://www.w3.org/2000/svg" in="SourceGraphic" in2="pf_100_dropShadow" mode="normal"/></filter><linearGradient id="_lgradient_17" x1="0" y1="0.5" x2="1" y2="0.5"><stop offset="2.5%" style="stop-color:#F0F4F9"/><stop offset="98.75%" style="stop-color:#E7F2F7"/></linearGradient></defs><g filter="url(#mkxh9i4rxn4uiCDAjpdFBeZS7ZdEDCr7)"><path d="M 126.375 25 L 279.625 25 C 328.952 25 369 65.048 369 114.375 L 369 260.625 C 369 309.952 328.952 350 279.625 350 L 126.375 350 C 77.048 350 37 309.952 37 260.625 L 37 114.375 C 37 65.048 77.048 25 126.375 25 Z" style="stroke:none;fill:url(#_lgradient_17);stroke-miterlimit:10;"/></g><defs><filter id="MTctFTcpl2boimviUPufFQCIP4igv57D" x="-200%" y="-200%" width="400%" height="400%" filterUnits="objectBoundingBox" color-interpolation-filters="sRGB"><feGaussianBlur xmlns="http://www.w3.org/2000/svg" in="SourceGraphic" stdDeviation="6.440413594258542"/><feOffset xmlns="http://www.w3.org/2000/svg" dx="5" dy="5" result="pf_100_offsetBlur"/><feFlood xmlns="http://www.w3.org/2000/svg" flood-color="#000000" flood-opacity="0.2"/><feComposite xmlns="http://www.w3.org/2000/svg" in2="pf_100_offsetBlur" operator="in" result="pf_100_dropShadow"/><feBlend xmlns="http://www.w3.org/2000/svg" in="SourceGraphic" in2="pf_100_dropShadow" mode="normal"/></filter></defs><g filter="url(#MTctFTcpl2boimviUPufFQCIP4igv57D)"><linearGradient id="_lgradient_18" x1="0" y1="0.5" x2="1" y2="0.5" gradientTransform="matrix(20.805,0,0,19.269,218.494,106.88)" gradientUnits="userSpaceOnUse"><stop offset="2.5%" stop-opacity="1" style="stop-color:rgb(227,163,24)"/><stop offset="98.75%" stop-opacity="1" style="stop-color:rgb(157,13,255)"/></linearGradient><ellipse vector-effect="non-scaling-stroke" cx="228.89595652779883" cy="116.5143177162411" rx="10.402399542628473" ry="9.634624764265709" fill="url(#_lgradient_18)"/></g><defs><filter id="WSDSykCsCRWOllk4JUozV2QWbhyoskU2" x="-200%" y="-200%" width="400%" height="400%" filterUnits="objectBoundingBox" color-interpolation-filters="sRGB"><feGaussianBlur xmlns="http://www.w3.org/2000/svg" in="SourceGraphic" stdDeviation="6.440413594258542"/><feOffset xmlns="http://www.w3.org/2000/svg" dx="5" dy="5" result="pf_100_offsetBlur"/><feFlood xmlns="http://www.w3.org/2000/svg" flood-color="#000000" flood-opacity="0.2"/><feComposite xmlns="http://www.w3.org/2000/svg" in2="pf_100_offsetBlur" operator="in" result="pf_100_dropShadow"/><feBlend xmlns="http://www.w3.org/2000/svg" in="SourceGraphic" in2="pf_100_dropShadow" mode="normal"/></filter></defs><g filter="url(#WSDSykCsCRWOllk4JUozV2QWbhyoskU2)"><linearGradient id="_lgradient_19" x1="0" y1="0.5" x2="1" y2="0.5" gradientTransform="matrix(20.805,0,0,19.269,292,87.61)" gradientUnits="userSpaceOnUse"><stop offset="2.5%" stop-opacity="1" style="stop-color:rgb(227,163,24)"/><stop offset="98.75%" stop-opacity="1" style="stop-color:rgb(157,13,255)"/></linearGradient><ellipse vector-effect="non-scaling-stroke" cx="302.4023995426285" cy="97.24506818770968" rx="10.402399542628473" ry="9.634624764265709" fill="url(#_lgradient_19)"/></g><defs><filter id="6mrHYYtrbVicbxJAwZ0LejqW4Anwblwa" x="-200%" y="-200%" width="400%" height="400%" filterUnits="objectBoundingBox" color-interpolation-filters="sRGB"><feGaussianBlur xmlns="http://www.w3.org/2000/svg" in="SourceGraphic" stdDeviation="6.440413594258542"/><feOffset xmlns="http://www.w3.org/2000/svg" dx="5" dy="5" result="pf_100_offsetBlur"/><feFlood xmlns="http://www.w3.org/2000/svg" flood-color="#000000" flood-opacity="0.2"/><feComposite xmlns="http://www.w3.org/2000/svg" in2="pf_100_offsetBlur" operator="in" result="pf_100_dropShadow"/><feBlend xmlns="http://www.w3.org/2000/svg" in="SourceGraphic" in2="pf_100_dropShadow" mode="normal"/></filter></defs><g filter="url(#6mrHYYtrbVicbxJAwZ0LejqW4Anwblwa)"><linearGradient id="_lgradient_20" x1="0" y1="0.5" x2="1" y2="0.5" gradientTransform="matrix(15.954,0,0,14.542,302.402,51.093)" gradientUnits="userSpaceOnUse"><stop offset="2.5%" stop-opacity="1" style="stop-color:rgb(227,163,24)"/><stop offset="98.75%" stop-opacity="1" style="stop-color:rgb(157,13,255)"/></linearGradient><ellipse vector-effect="non-scaling-stroke" cx="310.3792177652496" cy="58.36360711662931" rx="7.976818222621148" ry="7.271017647636402" fill="url(#_lgradient_20)"/></g><defs><filter id="GtFWWt3eJ3ecDKSmgED5qIEcT8RSLzSC" x="-200%" y="-200%" width="400%" height="400%" filterUnits="objectBoundingBox" color-interpolation-filters="sRGB"><feGaussianBlur xmlns="http://www.w3.org/2000/svg" in="SourceGraphic" stdDeviation="6.440413594258542"/><feOffset xmlns="http://www.w3.org/2000/svg" dx="5" dy="5" result="pf_100_offsetBlur"/><feFlood xmlns="http://www.w3.org/2000/svg" flood-color="#000000" flood-opacity="0.2"/><feComposite xmlns="http://www.w3.org/2000/svg" in2="pf_100_offsetBlur" operator="in" result="pf_100_dropShadow"/><feBlend xmlns="http://www.w3.org/2000/svg" in="SourceGraphic" in2="pf_100_dropShadow" mode="normal"/></filter></defs><g filter="url(#GtFWWt3eJ3ecDKSmgED5qIEcT8RSLzSC)"><linearGradient id="_lgradient_21" x1="0" y1="0.5" x2="1" y2="0.5" gradientTransform="matrix(28.298,0,0,26.209,312.805,116.514)" gradientUnits="userSpaceOnUse"><stop offset="2.5%" stop-opacity="1" style="stop-color:rgb(227,163,24)"/><stop offset="98.75%" stop-opacity="1" style="stop-color:rgb(157,13,255)"/></linearGradient><ellipse vector-effect="non-scaling-stroke" cx="326.9536364452423" cy="129.61886520602513" rx="14.14883735998535" ry="13.10454748978404" fill="url(#_lgradient_21)"/></g><defs><filter id="MqWsUtWFAoYkpjNU8ZgZ3cF8zeZgNhQr" x="-200%" y="-200%" width="400%" height="400%" filterUnits="objectBoundingBox" color-interpolation-filters="sRGB"><feGaussianBlur xmlns="http://www.w3.org/2000/svg" in="SourceGraphic" stdDeviation="6.440413594258542"/><feOffset xmlns="http://www.w3.org/2000/svg" dx="5" dy="5" result="pf_100_offsetBlur"/><feFlood xmlns="http://www.w3.org/2000/svg" flood-color="#000000" flood-opacity="0.3"/><feComposite xmlns="http://www.w3.org/2000/svg" in2="pf_100_offsetBlur" operator="in" result="pf_100_dropShadow"/><feBlend xmlns="http://www.w3.org/2000/svg" in="SourceGraphic" in2="pf_100_dropShadow" mode="normal"/></filter></defs><g filter="url(#MqWsUtWFAoYkpjNU8ZgZ3cF8zeZgNhQr)"><linearGradient id="_lgradient_22" x1="-0.19124771439552385" y1="0.6793898137103678" x2="1.002420857144247" y2="0.49772924286442566" gradientTransform="matrix(46.409,0,0,42.984,78.552,245.927)" gradientUnits="userSpaceOnUse"><stop offset="1.6666666666666667%" stop-opacity="1" style="stop-color:rgb(228,255,51)"/><stop offset="98.75%" stop-opacity="1" style="stop-color:rgb(255,94,0)"/></linearGradient><ellipse vector-effect="non-scaling-stroke" cx="101.75700362777482" cy="267.4192665701505" rx="23.204627500690407" ry="21.491952683373043" fill="url(#_lgradient_22)"/></g><defs><filter id="eygeTdQhrNVu2au4dSPnVYLqdTU6K9cM" x="-200%" y="-200%" width="400%" height="400%" filterUnits="objectBoundingBox" color-interpolation-filters="sRGB"><feGaussianBlur xmlns="http://www.w3.org/2000/svg" in="SourceGraphic" stdDeviation="7.299135406826348"/><feOffset xmlns="http://www.w3.org/2000/svg" dx="5" dy="5" result="pf_100_offsetBlur"/><feFlood xmlns="http://www.w3.org/2000/svg" flood-color="#000000" flood-opacity="0.25"/><feComposite xmlns="http://www.w3.org/2000/svg" in2="pf_100_offsetBlur" operator="in" result="pf_100_dropShadow"/><feBlend xmlns="http://www.w3.org/2000/svg" in="SourceGraphic" in2="pf_100_dropShadow" mode="normal"/></filter></defs><g filter="url(#eygeTdQhrNVu2au4dSPnVYLqdTU6K9cM)"><linearGradient id="_lgradient_23" x1="0.26585863544634436" y1="0.5029879246609703" x2="0.9954939214331127" y2="0.4999493572091363" gradientTransform="matrix(164.001,0,0,234.276,127.999,70.362)" gradientUnits="userSpaceOnUse"><stop offset="0%" stop-opacity="1" style="stop-color:rgb(227,163,24)"/><stop offset="98.33333333333333%" stop-opacity="1" style="stop-color:rgb(157,13,255)"/></linearGradient><path d=" M 233.442 213.235 C 233.446 209.055 235.678 205.193 239.298 203.103 C 262.257 189.851 273.453 162.83 266.593 137.224 C 259.733 111.618 236.53 93.812 210.021 93.812 C 183.512 93.812 160.308 111.618 153.448 137.224 C 146.589 162.83 157.784 189.851 180.743 203.103 C 184.489 205.136 186.836 209.044 186.87 213.306 C 186.903 217.569 184.619 221.513 180.905 223.605 C 177.191 225.696 172.634 225.606 169.006 223.367 C 137.424 205.136 121.678 168.236 130.367 132.82 C 139.056 97.403 170.092 71.981 206.526 70.436 C 242.96 68.891 276.037 91.595 287.692 126.149 C 299.348 160.703 286.782 198.803 256.857 219.643 L 256.869 228.498 C 256.87 233.542 253.642 238.02 248.857 239.614 L 178.576 263.041 C 174.605 264.363 170.229 263.467 167.098 260.688 C 163.967 257.91 162.556 253.673 163.397 249.572 C 164.237 245.472 167.202 242.131 171.173 240.809 L 233.442 220.064 L 233.442 213.247 L 233.442 213.235 Z  M 241.454 258.379 C 245.425 257.057 249.8 257.953 252.931 260.731 C 256.062 263.51 257.473 267.747 256.633 271.847 C 255.792 275.948 252.828 279.289 248.857 280.611 L 178.576 304.038 C 174.605 305.36 170.229 304.464 167.098 301.685 C 163.967 298.907 162.556 294.67 163.397 290.569 C 164.237 286.469 167.202 283.128 171.173 281.806 L 241.454 258.379 Z " fill="url(#_lgradient_23)"/></g><g clip-path="url(#_clipPath_lIYW32hA85iozVrjZUucED37WkoMHaDq)"><text transform="matrix(1,0,0,1,90.809,401.114)" style="font-family:'Russo One';font-weight:400;font-size:39px;font-style:normal;fill:#9D0DFF;stroke:none;">JGuilherme </text></g><defs><clipPath id="_clipPath_lIYW32hA85iozVrjZUucED37WkoMHaDq"><rect x="0" y="0" width="227.547" height="47" transform="matrix(1,0,0,1,90.809,365)"/></clipPath></defs><g clip-path="url(#_clipPath_7Ky9nvOxY34LyNGTUkeIGtOzRZTPnWaM)"><text transform="matrix(1,0,0,1,102.518,434.224)" style="font-family:'Russo One';font-weight:400;font-size:24px;font-style:normal;fill:#9D0DFF;stroke:none;">Small Solutions</text></g><defs><clipPath id="_clipPath_7Ky9nvOxY34LyNGTUkeIGtOzRZTPnWaM"><rect x="0" y="0" width="204.13" height="26.068" transform="matrix(1,0,0,1,102.518,412)"/></clipPath></defs></g></svg>